<svg xmlns="http://www.w3.org/2000/svg" width="102" height="52" version="1.1" id="svg-drawing" viewBox="0 0 500 500" xmlns:xlink="http://www.w3.org/1999/xlink" xmlns:svgjs="http://svgjs.com/svgjs"><g id="svg-name" datatype="text" class="svg-element" data-ori="{&quot;w&quot;:0,&quot;h&quot;:0,&quot;x2&quot;:0,&quot;y2&quot;:0,&quot;cx&quot;:0,&quot;cy&quot;:0,&quot;x&quot;:0,&quot;y&quot;:0,&quot;width&quot;:0,&quot;height&quot;:0}" transform="matrix(1,0,0,1,-119.24081383702043,53.400491735935276)"><g class="svg-shape" data-font="https://font.logo3.cn/经典综艺体简.ttf" data-text="易搜" data-size="45" fill="#000000" transform="matrix(5.9193376417066705,0,0,5.847588235256737,-14.028829533430375,-63.44633458321348)"><path d="M13.32 31.09L12.74 33.33L42.10 33.33L42.10 46.36Q42.10 51.57 35.55 51.57L35.55 51.57L30.06 51.57L30.06 46.91L34.83 46.91Q35.27 46.91 35.64 46.54Q36.01 46.16 36.01 45.44L36.01 45.44L36.01 38.08L10.09 38.08L9.25 39.09Q8.77 39.66 8.13 40.16Q7.49 40.65 6.49 40.80Q5.49 40.96 3.58 40.96L3.58 40.96L2.37 40.96L2.37 36.12L2.86 36.12Q3.91 36.12 4.70 35.90Q5.49 35.68 6.02 34.19L6.02 34.19L7.08 31.09L3.49 31.09L3.49 11.58L41.24 11.58L41.24 24.92Q41.24 26.65 40.91 27.85Q40.58 29.05 39.40 30.07Q38.21 31.09 33.93 31.09L33.93 31.09L13.32 31.09ZM35.16 23.42L9.82 23.42L9.82 26.50L33.24 26.50Q34.56 26.50 34.86 26.22Q35.16 25.95 35.16 25.22L35.16 25.22L35.16 23.42ZM9.82 19.14L35.16 19.14L35.16 16.11L9.82 16.11L9.82 19.14ZM7.89 45.09L12.02 39.79L19.01 39.79L12.83 48.52Q11.29 50.67 9.80 51.12Q8.31 51.57 6.66 51.57L6.66 51.57L2.37 51.57L2.37 46.91L4.00 46.98Q5.14 47.04 5.91 46.85Q6.68 46.65 7.89 45.09L7.89 45.09ZM20.79 45.02L24.94 39.70L31.93 39.70L25.73 48.43Q24.83 49.68 23.63 50.66Q22.43 51.64 19.58 51.57L19.58 51.57L15.42 51.50L15.42 46.91L17.05 46.91Q18.13 46.91 18.85 46.74Q19.58 46.56 20.79 45.02L20.79 45.02ZM53.88 19.23L47.07 19.23L47.07 14.48L53.88 14.48L53.88 10.99L59.17 10.99L59.17 14.48L61.39 14.48L61.39 19.23L59.17 19.23L59.17 22.96L61.13 22.96L61.13 27.62L59.17 27.62L59.17 47.20Q59.17 49.48 58.27 50.64Q57.37 51.79 54.82 51.79L54.82 51.79L47.92 51.79L47.92 47.09L51.59 47.09Q53.13 47.09 53.44 46.87Q53.75 46.65 53.81 46.19Q53.88 45.73 53.88 43.55L53.88 43.55L53.88 38.36L53.22 40.36Q52.34 42.98 49.81 42.98L49.81 42.98L47.20 42.98L47.20 38.17L48.43 38.17Q48.98 38.17 49.48 36.72L49.48 36.72L50.78 33.38L53.88 23.40L53.88 19.23ZM61.98 31.88L61.98 12.90L64.01 12.90Q64.75 12.90 65.00 12.66Q65.24 12.41 65.24 11.91L65.24 11.91L65.24 11.01L70.25 11.01L70.25 13.71Q70.25 15.31 69.68 16.13Q69.10 16.94 67.08 17.20L67.08 17.20L67.08 19.07L70.42 19.07L70.42 23.29L67.08 23.29L67.08 27.33L72.05 27.33L72.05 10.85L77.23 10.85L77.23 27.33L80.18 27.33Q81.12 27.33 81.44 27.05Q81.76 26.76 81.86 25.97Q81.96 25.18 81.96 24.90L81.96 24.90L81.96 23.29L79.19 23.29L79.19 18.96L81.96 18.96L81.96 16.70L79.10 16.70L79.10 12.30L87.14 12.30L87.14 26.46Q87.14 28.87 86.33 30.05Q85.52 31.22 84.50 31.55Q83.47 31.88 81.15 31.88L81.15 31.88L77.23 31.88L77.23 33.18L86.90 33.18L86.90 37.97L78.95 44.78Q80.55 45.92 81.64 46.40Q82.73 46.87 83.96 46.87L83.96 46.87L87.06 46.87L87.06 51.72L81.50 51.72Q80.00 51.72 79.06 51.41Q78.11 51.09 76.27 49.64L76.27 49.64L74.25 48.08L71.76 50.08Q70.38 51.20 69.44 51.46Q68.51 51.72 66.45 51.72L66.45 51.72L61.11 51.72L61.11 47.11L64.73 47.04Q65.90 47.04 66.95 46.63Q68.01 46.21 69.37 45L69.37 45L63.00 40.39L71.96 40.39L74.07 41.70L79.10 37.64L62.14 37.64L62.14 33.18L72.05 33.18L72.05 31.88L61.98 31.88Z"></path></g><rect id="SvgjsRect1798" width="102" height="52" class="svg-ghost" fill-opacity="0" stroke="#555555" stroke-opacity="0" stroke-width="0.8" stroke-dasharray="4,2"></rect></g></svg>