<svg xmlns="http://www.w3.org/2000/svg" width="100%" height="100%" version="1.1" id="svg-drawing" viewBox="0 0 500 500" xmlns:xlink="http://www.w3.org/1999/xlink" xmlns:svgjs="http://svgjs.com/svgjs"><rect id="svg-background" width="100%" height="100%" fill-opacity="0"></rect><g id="svg-body" transform="matrix(1,0,0,1,150,150)"><g id="svg-logo" transform="matrix(1,0,0,1,-129.10005252396462,-129.28571430274417)" class="svg-element" data-ori="{&quot;w&quot;:250,&quot;h&quot;:250,&quot;x2&quot;:250,&quot;y2&quot;:250,&quot;cx&quot;:125,&quot;cy&quot;:125,&quot;x&quot;:0,&quot;y&quot;:0,&quot;width&quot;:250,&quot;height&quot;:250}"><g class="svg-shape" transform="matrix(1.8168099020633304,0,0,1.8345762477496994,0,0)"><rect rx="0" ry="0" width="250" height="250" fill-opacity="0" class="svg-logo-background"></rect><g transform="matrix(1,0,0,1,25,25)" class="imgUrl"><svg xmlns="http://www.w3.org/2000/svg" xmlns:xlink="http://www.w3.org/1999/xlink" contentscripttype="text/ecmascript" zoomAndPan="magnify" contentstyletype="text/css" id="图层_1" enable-background="new 0 0 500 500" version="1.1" width="200" xml:space="preserve" preserveAspectRatio="xMidYMid meet" viewBox="0 0 500 500" height="200" x="0px" y="0px">
<linearGradient x1="256.9524" xmlns:xlink="http://www.w3.org/1999/xlink" gradientUnits="userSpaceOnUse" y1="475.0324" x2="246.9524" y2="152.0324" xlink:type="simple" xlink:actuate="onLoad" id="SVGID_1_" xlink:show="other">
	<stop offset="0" style="stop-color:#F6B85F"></stop>
	<stop offset="1" style="stop-color:#E5592C"></stop>
</linearGradient>
<path fill="url(#SVGID_1_)" d="M249.1,159.5c0,0-76.7-18.4-181,58.3c0,0,147.2,49.1,147.2,251.5c33.7,0,33.7,0,33.7,0s0,0,33.7,0  c0-202.4,147.2-251.5,147.2-251.5C325.7,141.1,249.1,159.5,249.1,159.5z"></path>
<path fill="#E5592C" d="M68.1,67.5c31.2,32.2,57,70.6,53.5,94.6c20.4-10.7,42.7-19.5,63-19.5c0,0-41.1-42.9-116.6-142.6  C31.3,55.9-4,124.2,58.9,199.4c5-2.1,13.2-7.3,23.3-13.8C82.2,185.6,35.9,141.1,68.1,67.5z"></path>
<path fill="#E5592C" d="M440.3,0c-75.5,99.7-116.6,142.6-116.6,142.6c20.3,0,42.6,8.8,63,19.5c-3.5-24.1,22.3-62.5,53.5-94.6  c32.2,73.6-14.1,118.1-14.1,118.1c10.1,6.5,18.3,11.7,23.3,13.8C512.4,124.2,477.1,55.9,440.3,0z"></path>
<path fill="#1B1C1B" d="M110.6,325.1c0,0,53.7-6.1,65.9,61.3C109,391.1,110.6,325.1,110.6,325.1z"></path>
<path fill="#1B1C1B" d="M389.7,325.1c0,0-53.7-6.1-65.9,61.3C391.2,391.1,389.7,325.1,389.7,325.1z"></path>
<path fill="#1B1C1B" d="M215.3,469.3L249,500l33.7-29.8C282.8,470.2,256.7,455.5,215.3,469.3z"></path>
</svg></g></g><rect id="SvgjsRect1453" width="454.2024755158326" height="458.64406193742485" class="svg-ghost" fill-opacity="0" stroke="#555555" stroke-opacity="0" stroke-width="0.8" stroke-dasharray="4,2"></rect></g></g><defs id="SvgjsDefs1001"></defs></svg>