<?xml version="1.0" standalone="no"?><!DOCTYPE svg PUBLIC "-//W3C//DTD SVG 1.1//EN" "http://www.w3.org/Graphics/SVG/1.1/DTD/svg11.dtd"><svg t="1607495251073" class="icon" viewBox="0 0 1148 1024" version="1.1" xmlns="http://www.w3.org/2000/svg" p-id="3484" xmlns:xlink="http://www.w3.org/1999/xlink" width="168.1640625" height="150"><defs><style type="text/css"></style></defs><path d="M1017.55778677 61.0756429h-879.43199319A65.07796746 65.07796746 0 0 0 71.72867839 125.27417824v607.24779101a65.07796746 65.07796746 0 0 0 65.51768307 64.19853533h266.02817817L529.91274693 940.5076352a66.39711519 66.39711519 0 0 0 49.6879075 22.42551607A66.39711519 66.39711519 0 0 0 630.16799404 940.5076352l118.72331906-142.02826637h268.22675715a65.07796746 65.07796746 0 0 0 65.95739959-65.95739958V125.27417824A65.07796746 65.07796746 0 0 0 1017.55778677 61.0756429z" fill="#F9DA97" p-id="3485"></path><path d="M577.40207455 364.0399641h-307.80119743a43.97160001 43.97160001 0 1 1 1e-8-87.94319913h307.80119742a43.97160001 43.97160001 0 1 1 0 87.94319913zM918.18197178 558.83415083H280.59377646a43.97160001 43.97160001 0 1 1 0-87.94319913h637.58819532a43.97160001 43.97160001 0 1 1 0 87.94319913z" fill="#F6C253" p-id="3486"></path></svg>