<?xml version="1.0" standalone="no"?><!DOCTYPE svg PUBLIC "-//W3C//DTD SVG 1.1//EN" "http://www.w3.org/Graphics/SVG/1.1/DTD/svg11.dtd"><svg t="1607495237536" class="icon" viewBox="0 0 1287 1024" version="1.1" xmlns="http://www.w3.org/2000/svg" p-id="3321" xmlns:xlink="http://www.w3.org/1999/xlink" width="188.525390625" height="150"><defs><style type="text/css"></style></defs><path d="M269.77910419 561.73388662l330.13056797-7.27805654v407.54416992z" fill="#4D63E9" p-id="3322"></path><path d="M269.77910419 561.73388662l330.13056797-7.27805654v407.54416992s7.43205762-29.14622666-74.4585794-128.43399902c-30.54523799-37.03428809-107.70083789-95.86974551-107.70083701-95.86974551z" fill="#6C8CF6" p-id="3323"></path><path d="M1048.30715975 561.31388369l-330.13056796-7.27705635v407.54416904z" fill="#4D63E9" p-id="3324"></path><path d="M1048.30715975 561.31388369l-330.13056796-7.27705635v407.54416904s-7.43205762-29.14622666 74.45857938-128.43399813c30.54523799-37.03428809 107.70083789-95.86974551 107.7008379-95.8697464z" fill="#6C8CF6" p-id="3325"></path><path d="M129.77001532 499.97340635A362.6678206 362.6678206 0 0 1 149.95317275 117.51843184l330.61457108 392.92405577z" fill="#5D7EFE" p-id="3326"></path><path d="M149.6491705 532.80366172l433.14836835-112.93587862-75.48058653 187.17945645-214.97567254 140.9910961z" fill="#4D63E9" p-id="3327"></path><path d="M148.50616171 531.65965273l433.14836835-112.93587861-75.48058652 187.17945645-186.42945059 121.30094355z" fill="#5D7EFE" p-id="3328"></path><path d="M1170.89811356 499.55640313a362.66182031 362.66182031 0 0 0-20.17015752-382.45197481l-330.61457109 392.92305645z" fill="#5D7EFE" p-id="3329"></path><path d="M1151.02795838 532.38765869L717.88358992 419.45278028l75.47958721 187.17945556 214.97567168 140.99209716z" fill="#4D63E9" p-id="3330"></path><path d="M1152.16796747 531.24264951L719.02759891 418.30877129l75.47758682 187.17945556 186.42944972 121.30094356z" fill="#5D7EFE" p-id="3331"></path><path d="M651.99807742 323.20903203a403.48113838 403.48113838 0 0 1-49.95038847-3.08202451 369.62287471 369.62287471 0 0 1-46.52336163-8.83906875 321.23749834 321.23749834 0 0 1-42.10032743-13.98510879 262.87804423 262.87804423 0 0 1-36.68028575-18.52314433 202.78357734 202.78357734 0 0 1-30.26523514-22.44917461 150.55117119 150.55117119 0 0 1-22.85117755-25.7662002 113.67288369 113.67288369 0 0 1-14.43911221-28.47022119 95.35374141 95.35374141 0 0 1 0.27800158-61.96248194 114.81589337 114.81589337 0 0 1 15.22011884-29.15922656 153.70819541 153.70819541 0 0 1 24.04018651-26.26220478A208.3876207 208.3876207 0 0 1 480.51674354 62.0039999a86.92267588 86.92267588 0 0 0-10.79008418 21.62716875 73.51357148 73.51357148 0 0 0 0.03100078 46.51436162 87.06267685 87.06267685 0 0 0 10.87508408 21.70016895 114.31888945 114.31888945 0 0 0 17.20013381 19.64515253 152.81618818 152.81618818 0 0 0 22.78117792 17.11213331 196.97453174 196.97453174 0 0 0 27.61721455 14.11910947 239.78286474 239.78286474 0 0 0 31.70024648 10.66008252 275.25314092 275.25314092 0 0 0 35.03027197 6.73705283 302.20235068 302.20235068 0 0 0 75.21258516 0 275.25314092 275.25314092 0 0 0 35.03027286-6.73705283 239.78086523 239.78086523 0 0 0 31.70024647-10.66008252 196.98553213 196.98553213 0 0 0 27.61721455-14.11910947 152.82618838 152.82618838 0 0 0 22.78317745-17.1091336 114.32488886 114.32488886 0 0 0 17.20013378-19.64015244 87.06367705 87.06367705 0 0 0 10.87508497-21.70016894 73.48557129 73.48557129 0 0 0 0.22900166-45.90635713 86.12767002 86.12767002 0 0 0-10.23408018-21.11416436 205.58059893 205.58059893 0 0 1 31.02424189 22.58117579 152.119183 152.119183 0 0 1 23.44618214 26.00920195 114.24088828 114.24088828 0 0 1 14.82811522 28.81622461 95.3327417 95.3327417 0 0 1 0.13200118 61.5544787 113.67088418 113.67088418 0 0 1-14.4411126 28.47322179 150.55517109 150.55517109 0 0 1-22.85117754 25.76620019 202.77757705 202.77757705 0 0 1-30.26323564 22.44917461 262.85804473 262.85804473 0 0 1-36.68028486 18.52314434 321.24749854 321.24749854 0 0 1-42.10032744 13.98510878 369.60287431 369.60287431 0 0 1-46.52336249 8.83906875 403.46013779 403.46013779 0 0 1-49.94938829 3.08402315z" fill="#708BFE" p-id="3332"></path><path d="M448.80249696 130.31153105c0-23.90918555 9.92507695-46.32436055 27.25821211-65.62151015q2.2060169-1.36101094 4.46503447-2.686021a86.94167607 86.94167607 0 0 0-10.7950834 21.62916827 73.50657188 73.50657188 0 0 0 0.03099991 46.51436162 87.01867705 87.01867705 0 0 0 10.87508495 21.70016894 114.29488916 114.29488916 0 0 0 17.20013381 19.64015244 152.86218926 152.86218926 0 0 0 22.78117703 17.1111331 196.97853164 196.97853164 0 0 0 27.61721455 14.12011055 239.89586573 239.89586573 0 0 0 31.7002465 10.66008252 275.48314278 275.48314278 0 0 0 35.03027284 6.73705284 300.0433333 300.0433333 0 0 0 37.60629258 2.34901757 300.04133378 300.04133378 0 0 0 37.60629171-2.34901757 275.48514229 275.48514229 0 0 0 35.03027284-6.73705284 239.90186602 239.90186602 0 0 0 31.70024648-10.66008252 196.97753232 196.97753232 0 0 0 27.61721455-14.12011055 152.86218926 152.86218926 0 0 0 22.77917754-17.10513281 114.30088857 114.30088857 0 0 0 17.20013379-19.64115263 87.05867695 87.05867695 0 0 0 10.87508496-21.70016894 73.50057158 73.50057158 0 0 0 0.22900167-45.90635713 86.13466963 86.13466963 0 0 0-10.23408019-21.11416437q1.29101045 0.77400615 2.56402003 1.5590127c17.33013457 19.30015019 27.25621172 41.7183249 27.25621259 65.62751045 0 72.39256348-90.97670742 131.07801972-203.20158074 131.07801973s-203.19158057-58.69245674-203.19158058-131.08502022z" fill="#ACC2F3" p-id="3333"></path><path d="M343.47667821 482.90627393c0 172.28734013 139.66708623 311.95442637 311.95442638 311.95442636s311.95442637-139.66308633 311.95442547-311.95442636-139.66708623-311.95442637-311.95442547-311.95442637-311.95442637 139.66708623-311.95442638 311.95442637z" fill="#87A0FA" p-id="3334"></path><path d="M431.62536326 483.47827842c0 123.91896357 100.45778115 224.37874511 224.37874512 224.37874512s224.37874511-100.45978154 224.37874512-224.37874512-100.45778115-224.38374521-224.37874512-224.38374521-224.37874511 100.46278125-224.37874512 224.38374521z" fill="#5770D4" p-id="3335"></path><path d="M431.70236425 489.20332256q-0.07200089-2.86102266-0.07200089-5.72404483a226.16675947 226.16675947 0 0 1 4.56903546-45.27035156 224.27174443 224.27174443 0 0 1 174.58635848-174.54935742 226.5697626 226.5697626 0 0 1 90.43870344 0 224.27074423 224.27074423 0 0 1 174.60135789 174.60135791 226.0477582 226.0477582 0 0 1 4.55903526 45.21735176c0 1.88501484-0.02400029 3.8000294-0.07100067 5.67804375a225.56175469 225.56175469 0 0 0-5.50604269-44.16934306 224.30774443 224.30774443 0 0 0-174.25935527-170.01832237 226.60176269 226.60176269 0 0 0-89.08669336 0A224.20774425 224.20774425 0 0 0 431.70236425 489.20332256z" fill="#4961BE" p-id="3336"></path><path d="M651.99807742 446.52999043l-73.8885744-73.88857441h147.7761495z" fill="#71BAF7" p-id="3337"></path><path d="M577.58549911 373.16541991l73.88857442 73.88757511h-147.77114942z" fill="#43A9F3" p-id="3338"></path><path d="M726.40465633 373.16541991l73.88857442 73.88757511H652.52008182z" fill="#43A9F3" p-id="3339"></path><path d="M651.99807742 373.16541991l73.88857442 73.88757511H578.10950301z" fill="#78C1F6" p-id="3340"></path><path d="M800.27723115 447.63999981L651.99007762 595.92915283 503.70292412 447.63999981z" fill="#83C1F9" p-id="3341"></path><path d="M651.99807742 447.57799913l73.88857442 73.88757421H578.10950301z" fill="#71BAF7" p-id="3342"></path><path d="M726.25565535 447.61699883l-74.26657792 148.312154-73.9335753-148.321154z" fill="#A1D0FA" p-id="3343"></path><path d="M583.88354794 422.56080459s0.74600596 10.02107812 6.81705264 16.09212481 17.46713584 8.19206367 17.46713584 8.19206367-11.63609033-0.89200723-17.70613771 5.17904033-6.57805078 19.10614834-6.57805077 19.10614834-0.05500019-12.24909492-6.12604776-18.3211418-18.15814161-5.96404599-18.15814161-5.96404687 11.40008906-0.36300322 17.46913624-6.4340499 6.81505312-17.85013857 6.81505313-17.85013858z" fill="#FFFFFF" p-id="3344"></path><path d="M698.36043836 483.19627607s0.36100283 4.84203779 3.29402549 7.77406026 8.43806602 3.95803037 8.43806514 3.95803125-5.62104404-0.43000313-8.55406583 2.50001895-3.1780248 9.22907198-3.1780248 9.22907196-0.027-5.91904599-2.96402343-8.85506923-8.76906826-2.87702227-8.76906826-2.87702226 5.50804307-0.17500166 8.44006552-3.10802432 3.29302529-8.62106748 3.29302617-8.62106661z" fill="#FFFFFF" p-id="3345"></path></svg>