<?xml version="1.0" standalone="no"?><!DOCTYPE svg PUBLIC "-//W3C//DTD SVG 1.1//EN" "http://www.w3.org/Graphics/SVG/1.1/DTD/svg11.dtd"><svg t="1607497945264" class="icon" viewBox="0 0 1024 1024" version="1.1" xmlns="http://www.w3.org/2000/svg" p-id="3767" xmlns:xlink="http://www.w3.org/1999/xlink" width="150" height="150"><defs><style type="text/css"></style></defs><path d="M529.27035949 50.1117347L652.79097715 173.58542165h172.89131992c14.82998329 0 24.73228128 9.90229909 24.73228128 24.73228128V371.20902285l123.47368695 123.52061766c9.8553684 9.8553684 9.8553684 24.68535169 0 34.54071898L850.41457835 652.79097715v172.89131992c0 14.82998329-9.90229909 24.73228128-24.73228128 24.73228128H652.79097715l-123.52061766 123.47368695a23.88753542 23.88753542 0 0 1-34.54071898 0L371.20902285 850.41457835H198.31770293c-14.82998329 0-24.73228128-9.90229909-24.73228128-24.73228128V652.79097715l-123.47368695-123.52061766c-9.8553684-9.8553684-9.8553684-29.61303589 0-39.51533388l123.47368695-123.47368696v-168.01056642c0-14.7830526 9.90229909-24.68535169 24.73228128-24.68535058H371.20902285l118.54600276-123.47368695c9.8553684-9.8553684 29.65996548-9.8553684 39.51533388 0z m94.3299547 193.86917552L510.12278661 130.50338265 401.24443168 243.98091022H243.93397952v151.44416071l-114.08762217 114.08762217 114.08762217 114.13455177v156.32491532h156.37184491L512 891.66633466l111.64724487-111.60031418 156.32491532-0.0469307v-156.32491421L891.66633466 512l-111.60031418-111.64724487-0.0469307-156.37184491h-156.32491421z" fill="#666666" p-id="3768"></path><path d="M498.67178786 234.87642629a18.02124508 18.02124508 0 0 1 23.69981375 0L596.47458628 308.97941096h103.71601946c8.91676225 0 14.82998329 5.91322104 14.8299833 14.78305261V427.52541372l74.14991426 74.10298467a14.31374899 14.31374899 0 0 1 0 20.74320322l-74.14991426 74.10298467v103.71601946c0 8.91676225-5.91322104 14.82998329-14.78305261 14.8299833H596.47458628l-74.10298467 74.14991426a14.31374899 14.31374899 0 0 1-20.74320322 0l-74.10298467-74.14991426H323.80939426c-8.91676225 0-14.82998329-5.91322104-14.8299833-14.78305261V596.47458628l-74.14991426-74.10298467a18.02124508 18.02124508 0 0 1 0-23.69981375l74.14991426-74.14991536V323.80939426c0-8.86983156 5.91322104-14.7830526 14.78305261-14.7830526H427.52541372l71.14637414-74.14991537z" fill="#00C691" p-id="3769"></path><path d="M627.91790488 393.26627557a35.19774428 35.19774428 0 0 1 53.17205866 45.80399827l-3.42591414 3.94214735-187.72130212 187.72130324a35.19774428 35.19774428 0 0 1-45.80399826 3.42591304l-3.94214736-3.42591304-93.86065106-93.86065217a35.19774428 35.19774428 0 0 1 45.80399716-53.17205867l3.94214736 3.42591415L465.06967392 556.06757585l162.84823096-162.84822987z" fill="#666666" p-id="3770"></path></svg>