<?xml version="1.0" standalone="no"?><!DOCTYPE svg PUBLIC "-//W3C//DTD SVG 1.1//EN" "http://www.w3.org/Graphics/SVG/1.1/DTD/svg11.dtd"><svg t="1607313555618" class="icon" viewBox="0 0 1024 1024" version="1.1" xmlns="http://www.w3.org/2000/svg" p-id="2940" xmlns:xlink="http://www.w3.org/1999/xlink" width="150" height="150"><defs><style type="text/css"></style></defs><path d="M51.17090953 687.85454572c-3.60727237 1.35272762-6.31272762 4.50909047-7.66545525 8.11636381-1.80363619 3.60727237-1.80363619 7.66545428 0 11.27272666 1.80363619 5.41090953 7.21454572 9.46909047 13.52727334 9.0181819 1.80363619 0 3.60727237-0.45090953 5.41090857-0.90181809l38.7781819-16.23272762c7.21454572-2.70545428 10.82181809-11.27272762 8.11636382-18.48727238v-0.45090953c-1.35272762-3.60727237-4.50909047-6.31272762-8.11636382-8.11636284-3.60727237-1.35272762-7.66545428-1.35272762-11.27272762 0L51.17090953 687.85454572m282.72 228.16c-3.60727237 1.35272762-6.31272762 4.50909047-7.66545525 8.11636381l-16.23272666 38.77818094c-2.70545428 7.66545428 0.90181809 16.23272763 8.56727238 18.93818191 1.35272762 0.45090953 3.15636381 0.90181809 4.96 0.90181809 5.86181809 0 11.27272762-3.60727237 13.52727237-9.01818094l16.23272763-38.32727334c1.35272762-3.60727237 1.35272762-7.66545428 0-11.27272666s-4.50909047-6.31272762-8.11636381-8.11636381c-4.05818191-1.35272762-7.66545428-1.35272762-11.27272666 0m337.28 7.66545428c-1.35272762 3.60727237-1.35272762 7.66545428 0 11.27272763l16.23272666 38.32727237c2.25454572 5.41090953 7.66545428 9.01818191 13.52727334 9.01818191 8.11636381 0 14.42909047-6.31272762 14.88-14.42909144 0-1.80363619-0.45090953-4.05818191-0.90181906-5.86181809l-16.23272666-38.77818191c-2.70545428-7.21454572-11.27272762-10.82181809-18.48727334-8.11636284-4.05818191 2.25454572-7.21454572 5.41090953-9.01818094 8.56727237m243.9418181-243.94181809c-3.15636381 7.21454572 0.45090953 15.78181809 7.66545428 18.48727237h0.45090856l38.7781819 16.23272763c1.80363619 0.90181809 3.60727237 0.90181809 5.41090954 0.90181809 8.11636381 0 14.42909047-6.76363619 14.42909046-14.42909047 0-1.80363619-0.45090953-3.60727237-0.90181809-5.41090953-1.35272762-3.60727237-4.50909047-6.31272762-8.11636381-8.11636381l-38.32727238-16.23272666c-3.60727237-1.35272762-7.66545428-1.35272762-11.27272762 0-3.60727237 2.25454572-6.31272762 4.96-8.11636285 8.56727238m57.71636285-342.69090953c3.60727237-1.35272762 6.31272762-4.50909047 7.66545525-8.11636285 1.80363619-3.60727237 1.80363619-7.66545428 0-11.27272762-2.70545428-7.21454572-11.27272762-10.82181809-18.48727335-8.11636382h-0.45090856l-38.7781819 16.23272763c-7.21454572 2.70545428-10.82181809 11.27272762-8.11636382 18.48727237 0.90181809 2.70545428 3.15636381 5.41090953 5.8618181 6.76363619 2.25454572 1.80363619 4.96 2.25454572 8.11636381 2.25454572 1.80363619 0 4.05818191-0.45090953 5.86181809-0.90181809l38.32727238-15.33090953m-275.05454475-235.37454475l16.23272666-38.77818191c3.15636381-7.21454572-0.45090953-15.78181809-7.66545429-18.48727334h-0.45090856c-3.60727237-1.80363619-7.66545428-1.80363619-11.27272762 0-3.60727237 1.35272762-6.31272762 4.05818191-8.11636382 7.66545525l-16.23272762 38.7781819c-0.90181809 1.80363619-1.35272762 3.60727237-1.35272666 5.8618181 0 3.60727237 1.80363619 7.21454572 4.50909047 9.92 2.70545428 2.70545428 6.31272762 4.05818191 10.37090953 4.0581819 6.76363619-0.45090953 12.17454572-4.05818191 13.97818191-9.0181819m-344.94545525-0.45090954c1.35272762-3.60727237 1.35272762-7.66545428 0-11.27272762l-16.23272666-38.32727238c-3.15636381-7.66545428-11.72363619-10.82181809-19.38909143-8.11636381-3.60727237 1.35272762-6.31272762 4.50909047-7.66545429 8.11636381-1.35272762 3.60727237-1.35272762 7.21454572 0 10.8218181l16.23272763 38.7781819c1.80363619 5.41090953 7.21454572 9.46909047 13.52727237 9.01818191 1.80363619 0 3.60727237-0.45090953 5.41090954-0.90181809 3.60727237-1.80363619 6.76363619-4.50909047 8.11636284-8.11636382M108.88727238 345.61454572c3.15636381-7.21454572-0.45090953-15.78181809-7.66545429-18.48727334h-0.45090856l-38.77818191-16.23272666c-7.21454572-3.15636381-15.78181809 0.45090953-18.48727334 7.66545428v0.45090953c-1.80363619 3.60727237-1.80363619 7.66545428 0 11.27272666 1.35272762 3.60727237 4.05818191 6.31272762 7.66545525 8.11636381l38.77818094 16.23272763c1.80363619 0.45090953 3.60727237 0.90181809 5.86181906 0.90181809 2.70545428 0 5.41090953-0.90181809 8.11636284-2.25454572 1.80363619-2.70545428 4.05818191-4.96 4.96-7.66545428z" fill="#FCEB88" p-id="2941"></path><path d="M513.35272762 709.49818191c-43.28727238-20.29090953-93.33818191-21.64363619-137.52727334-3.60727238 32.91636381 40.13090953 81.61454572 63.57818191 133.46909144 64.02909047 22.54545428 0 44.64-4.05818191 65.83272665-12.62545428-17.13454572-20.29090953-37.87636381-36.52363619-61.77454475-47.79636381z" fill="#FC4C59" p-id="2942"></path><path d="M708.59636381 788.85818191c-9.01818191 6.31272762-18.48727237 12.17454572-27.95636381 18.03636381-25.25090953 14.42909047-51.40363619 25.70181809-78.90909047 33.36727237 38.77818191-10.37090953 74.85090953-27.95636381 106.86545428-51.40363618M227.47636381 328.48c4.05818191-6.31272762 8.56727237-12.17454572 12.62545428-18.48727237C215.75272763 341.10545428 198.16727237 376.72727238 187.34545428 414.15272762c9.01818191-29.76 22.54545428-58.61818191 40.13090953-85.67272762m103.70909047-103.25818191c11.72363619-7.21454572 23.89818191-13.52727237 36.07272763-19.84-27.05454572 39.68-38.32727237 91.53454572-33.36727238 154.21090954 0.45090953 3.60727237 0.45090953 6.76363619 0.90181809 10.37090856 25.70181809-9.92 55.01090953 3.60727237 64.93090857 29.30909144 2.25454572 5.41090953 3.15636381 11.72363619 3.15636381 17.58545428 0 3.60727237-1.35272762 7.21454572-4.05818191 9.92-2.70545428 2.70545428-6.31272762 4.50909047-10.37090856 4.0581819-8.11636381 0-14.42909047-6.31272762-14.42909144-14.42909143 0-5.41090953-2.25454572-10.82181809-6.31272762-14.88s-9.46909047-6.31272762-15.33090856-6.31272666c-4.96 0-9.92 1.80363619-13.52727238 5.41090856 1.80363619 9.92 4.05818191 19.38909047 6.31272666 28.40727335 5.86181809 2.70545428 11.72363619 5.86181809 16.68363618 9.92 13.97818191 9.92 22.09454572 25.70181809 22.54545525 42.38545428 0 9.46909047-2.70545428 18.93818191-7.66545525 27.05454572 5.41090953 10.37090953 11.27272762 20.29090953 17.58545525 29.76 18.48727237 28.85818191 40.58181809 55.01090953 66.73454475 78.00727237h220.04363716c-2.70545428 29.30909047-13.97818191 57.26545428-31.11272762 81.16363619 50.95272763 5.41090953 102.80727238 1.80363619 152.8581819-9.46909047-4.96 8.11636381-9.92 15.78181809-15.33090953 23.44727237 42.83636381-57.71636381 64.48-124 64.48-199.30181809 0-93.33818191-32.91636381-173.6-99.2-239.88363619S605.33818191 173.36727238 512 173.36727238c-64.02909047-0.90181809-126.70545428 17.13454572-180.81454572 51.85454571m355.31636381 177.20727238c-4.05818191-4.05818191-9.46909047-6.31272762-15.33090856-6.31272666-11.72363619 0-21.19272762 9.92-21.19272762 21.64363619 0 3.60727237-1.35272762 7.21454572-4.05818191 9.92-2.70545428 2.70545428-6.31272762 4.50909047-10.37090953 4.05818191-8.11636381 0-14.42909047-6.31272762-14.42909047-14.42909144 0.90181809-27.50545428 24.34909047-49.14909047 51.40363619-48.24727238 26.15272763 0.90181809 47.79636381 22.09454572 48.24727334 48.24727238 0 1.80363619-0.45090953 3.60727237-0.90181906 5.41090953 17.58545428 0.45090953 33.81818191 6.76363619 47.79636381 17.13454572 13.52727237 9.92 22.09454572 25.70181809 22.09454572 42.38545428s-8.56727237 32.01454572-22.09454572 41.93454572c-15.33090953 11.72363619-33.81818191 18.03636381-53.20727237 17.58545428-19.38909047 0.45090953-37.87636381-5.86181809-52.75636382-17.58545428s-22.54545428-25.70181809-22.54545428-41.48363619c0-16.68363619 7.66545428-30.21090953 22.54545428-42.38545525 9.46909047-7.66545428 20.74181809-13.07636381 32.46545429-15.33090856-1.35272762-2.25454572-1.80363619-4.96-1.80363619-7.21454572 0.45090953-5.86181809-1.80363619-11.27272762-5.8618181-15.33090953z" fill="#F7EF87" p-id="2943"></path><path d="M631.49090953 650.42909047c5.86181809 0 11.72363619-2.25454572 16.23272666-6.76363619s6.76363619-10.37090953 6.76363619-16.23272666v-10.82181809H364.55272763v10.82181809c0 6.31272762 2.25454572 12.17454572 6.76363618 16.23272666 4.50909047 4.50909047 10.37090953 6.76363619 16.23272666 6.76363619h243.94181906z" fill="#F2F2F2" p-id="2944"></path><path d="M680.64 617.06181809h-26.15272762v10.8218181c0 6.31272762-2.25454572 12.17454572-6.76363619 16.23272762-4.05818191 4.50909047-9.92 6.76363619-16.23272666 6.76363619H387.54909047c-6.31272762 0-12.17454572-2.25454572-16.23272666-6.76363619-4.50909047-4.50909047-6.76363619-10.37090953-6.76363618-16.23272762v-10.8218181h-26.15272763c3.15636381 32.46545428 16.23272763 63.57818191 36.97454572 88.82909144 70.79272762-27.95636381 151.05454572-7.21454572 199.30181809 51.40363619 29.30909047-13.07636381 55.46181809-32.91636381 74.4-59.52 17.58545428-23.44727238 28.40727238-51.40363619 31.56363619-80.71272763z" fill="#7F184C" p-id="2945"></path><path d="M339.30181809 401.07636381l-1.35272762 1.35272666c-4.05818191 4.05818191-6.31272762 9.46909047-6.31272666 14.88 0 2.70545428-0.90181809 4.96-1.80363619 7.21454572 5.41090953 0.90181809 10.82181809 2.70545428 16.23272666 4.96-3.15636381-9.46909047-4.96-19.38909047-6.76363619-28.40727238M367.70909047 205.38181809c-12.62545428 6.31272762-24.8 12.62545428-36.07272666 19.84l-47.79636381 36.97454572-4.96 4.50909047c-5.41090953 4.96-10.82181809 10.37090953-16.23272763 16.23272763l-22.99636284 27.95636381c-4.50909047 5.86181809-8.56727237 12.17454572-12.62545525 18.48727237-17.58545428 27.05454572-30.66181809 55.46181809-40.13090856 85.67272763l-13.97818191 94.24v3.15636381c0 74.85090953 21.19272762 140.23272762 63.12727238 197.49818094 11.27272762 15.33090953 23.44727238 28.85818191 36.07272762 42.38545525 58.61818191 59.06909047 136.17454572 93.78909047 219.59272666 98.74909047 6.76363619 0.45090953 13.52727237 0.90181809 20.29090953 0.90181809h4.05818191l85.22181809-11.27272666c27.50545428-8.11636381 54.10909047-19.38909047 78.90909047-33.36727334 9.92-5.41090953 19.38909047-11.72363619 27.95636381-18.03636381l21.19272763-17.58545428 13.52727237-10.8218181c4.50909047-4.50909047 9.01818191-8.56727237 13.07636381-13.07636381l30.21090953-35.62181809c5.41090953-7.66545428 10.37090953-15.33090953 15.33090857-23.44727238-50.05090953 11.72363619-101.45454572 14.88-152.85818191 9.46909047-31.56363619 45.54181809-84.32 72.59636381-139.78181809 72.14545525-87.47636381 0-160.97454572-65.83272762-170.89454572-152.85818191h122.19636381c-25.70181809-22.99636381-47.79636381-48.69818191-66.28363619-78.00727334-6.76363619-9.92-12.62545428-19.84-17.58545428-29.76-4.05818191 5.86181809-9.01818191 10.82181809-14.42909144 15.33090953-15.33090953 11.72363619-33.81818191 18.03636381-53.20727237 17.58545428-19.38909047 0.45090953-37.42545428-5.86181809-52.75636381-17.58545428-14.88-11.72363619-22.54545428-25.70181809-22.54545428-41.93454572 0-16.68363619 7.66545428-30.21090953 22.54545428-42.38545428 13.52727237-10.82181809 30.21090953-17.13454572 47.34545428-17.13454572-0.45090953-1.80363619-0.90181809-3.60727237-0.9018181-5.41090856-0.45090953-13.52727237 4.96-26.60363619 14.88-35.17090953 4.96-4.96 10.82181809-9.01818191 17.58545525-11.72363619-0.45090953-3.60727237-0.45090953-6.76363619-0.90181809-10.37090953-4.96-63.12727237 6.31272762-114.53090953 33.36727238-154.21090856l0.45090856-1.35272763z" fill="#EFD176" p-id="2946"></path><path d="M317.65818191 382.13818191c-9.92 9.46909047-15.33090953 22.09454572-14.88 35.17090856 0 1.80363619 0.45090953 3.60727237 0.90181809 5.41090953 0.90181809 1.80363619 1.80363619 3.60727237 3.15636381 4.96 2.70545428 2.70545428 6.31272762 4.05818191 9.92 4.05818191 4.05818191 0 7.66545428-1.35272762 10.37090857-4.05818191 0.90181809-0.90181809 1.80363619-1.80363619 2.25454571-2.70545428 1.35272762-2.25454572 1.80363619-4.96 1.80363619-7.21454572 0-5.41090953 2.25454572-10.82181809 6.31272763-14.88l1.35272762-1.35272762c3.60727237-3.15636381 8.56727237-5.41090953 13.52727238-5.41090857 5.86181809 0 11.27272762 2.25454572 15.33090856 6.31272666 4.05818191 4.05818191 6.31272762 9.46909047 6.31272762 14.88 0 8.11636381 6.31272762 14.42909047 14.42909144 14.42909144 4.05818191 0 7.66545428-1.35272762 10.37090856-4.05818191s4.05818191-6.31272762 4.05818191-9.92c0-27.50545428-22.54545428-50.50181809-50.05090953-50.50181809-5.86181809 0-12.17454572 0.90181809-17.58545428 3.15636381-6.76363619 2.70545428-12.62545428 6.31272762-17.58545428 11.72363619m353.51272762 13.9781819c5.86181809 0 11.27272762 2.25454572 15.33090856 6.31272666 4.05818191 4.05818191 6.31272762 9.46909047 6.31272763 14.88 0 2.70545428 0.90181809 4.96 1.80363619 7.21454572 0.45090953 0.90181809 1.35272762 1.80363619 2.25454571 2.70545428 2.70545428 2.70545428 6.31272762 4.05818191 9.92 4.05818191 5.86181809 0 11.27272762-3.60727237 13.52727238-9.01818191 0.45090953-1.80363619 0.90181809-3.60727237 0.90181809-5.41090856-0.90181809-27.50545428-24.34909047-49.14909047-51.40363618-48.24727238-26.15272763 0.90181809-47.79636381 22.09454572-48.24727238 48.24727238 0 8.11636381 6.31272762 14.42909047 14.42909047 14.42909047 4.05818191 0 7.66545428-1.35272762 10.37090953-4.05818191 2.70545428-2.70545428 4.05818191-6.31272762 4.05818094-9.92-0.90181809-11.72363619 8.56727237-21.19272762 20.74181906-21.19272666z" fill="#4E5660" p-id="2947"></path><path d="M303.68 423.17090953c-17.13454572 0.45090953-33.81818191 6.76363619-47.34545428 17.13454475-14.88 11.72363619-22.54545428 26.15272763-22.54545525 42.38545525 0 16.68363619 7.66545428 30.21090953 22.54545525 41.93454475 15.33090953 11.72363619 33.36727237 18.03636381 52.75636381 17.58545525 19.38909047 0.45090953 37.87636381-5.86181809 53.20727238-17.58545525 5.41090953-4.50909047 10.37090953-9.46909047 14.42909046-15.33090856 4.96-8.11636381 8.11636381-17.58545428 8.11636382-27.05454572 0-17.13454572-8.56727237-32.46545428-22.09454572-42.38545428-5.41090953-4.05818191-10.82181809-7.21454572-16.68363619-9.92-4.96-2.25454572-10.37090953-4.05818191-16.23272666-4.96-0.45090953 0.90181809-1.35272762 1.80363619-2.25454571 2.70545428-2.70545428 2.70545428-6.31272762 4.50909047-10.37090953 4.05818191-3.60727237 0-7.21454572-1.35272762-9.92-4.05818191-1.35272762-1.35272762-2.70545428-3.15636381-3.15636285-4.96m403.11272666 9.01818191c-3.60727237 0-7.21454572-1.35272762-9.92-4.05818191-0.90181809-0.90181809-1.80363619-1.80363619-2.25454572-2.70545428-12.17454572 2.70545428-22.99636381 7.66545428-32.46545428 15.33090856-14.88 11.72363619-22.54545428 26.15272763-22.54545428 42.38545525s7.66545428 30.21090953 22.54545428 41.93454475 32.91636381 17.58545428 52.30545428 17.13454572c19.38909047 0.45090953 37.87636381-5.86181809 53.20727334-17.58545428 13.52727237-9.92 22.09454572-25.70181809 22.09454572-41.93454572 0-17.13454572-8.56727237-32.46545428-22.09454572-42.38545428-13.52727237-10.82181809-30.21090953-16.68363619-47.79636381-17.13454572-2.25454572 5.86181809-7.66545428 9.01818191-13.07636381 9.01818191z" fill="#E5646E" p-id="2948"></path><path d="M594.96727238 77.77454572c-15.78181809-16.23272763-32.46545428-31.56363619-50.05090857-45.54181809-9.01818191-7.66545428-20.74181809-11.72363619-32.91636381-11.72363716s-23.89818191 4.05818191-32.91636381 11.27272762c-18.03636381 14.42909047-34.26909047 29.30909047-50.05090856 45.5418181-18.03636381 18.48727237-34.26909047 37.42545428-49.14909144 58.16727334-9.46909047 12.62545428-25.25090953 19.38909047-40.5818181 16.68363619-11.72363619-1.80363619-23.89818191-3.60727237-36.07272762-4.50909144l7.21454572 0.9018181c-12.62545428 36.97454572-21.19272762 75.30181809-26.15272666 113.62909143L331.63636381 225.22181809c53.65818191-34.72 116.78545428-52.75636381 180.36363619-51.85454571 93.33818191 0 173.6 32.91636381 239.43272762 99.2s99.2 146.09454572 99.2 239.88363715c0 75.75272763-21.64363619 142.03636381-64.48 199.3018181l-30.21090953 35.62181809-13.07636381 13.07636381-13.52727237 10.8218181c49.6-1.35272762 99.2-5.86181809 147.8981819-13.97818191v8.56727237-4.50909046c0-25.70181809-2.25454572-50.95272763-6.31272762-76.20363716-1.35272762-7.66545428-0.45090953-15.78181809 2.70545428-22.99636284s8.11636381-13.52727237 14.42909144-18.03636382c20.74181809-14.88 40.13090953-31.11272762 58.16727237-49.14909143 16.23272763-15.78181809 31.11272762-32.46545428 45.54181809-50.05090857 15.33090953-19.38909047 15.33090953-46.44363619 0-65.83272762-14.42909047-17.58545428-29.30909047-34.26909047-45.54181809-50.05090856-18.48727237-18.03636381-37.42545428-34.26909047-58.16727237-49.14909144-6.31272762-4.50909047-11.27272762-10.82181809-14.42909144-18.03636381-3.15636381-7.21454572-3.60727237-15.33090953-2.70545428-22.99636285 4.05818191-25.25090953 6.31272762-50.50181809 6.31272762-76.20363715 0.45090953-22.99636381-0.90181809-45.09090953-3.60727334-67.63636285-2.70545428-24.34909047-22.09454572-43.28727238-45.99272666-45.99272762-22.54545428-2.70545428-45.09090953-4.05818191-67.63636381-3.60727238-25.70181809 0-50.95272763 2.25454572-76.65454572 6.31272666-15.78181809 2.25454572-31.11272762-4.05818191-40.58181809-16.68363619-13.52727237-19.84-30.21090953-39.22909047-47.79636381-57.26545428z" fill="#FF9900" p-id="2949"></path><path d="M203.57818191 149.01818191l-8.56727238 0.90181809c-24.34909047 2.70545428-43.28727238 22.09454572-45.99272762 45.99272763-2.70545428 22.54545428-4.05818191 45.09090953-3.60727238 67.63636284 0 25.70181809 2.25454572 50.95272763 6.31272666 76.20363716 2.25454572 15.78181809-4.05818191 31.11272762-16.68363619 40.58181809-20.74181809 14.88-40.13090953 31.11272762-58.16727238 49.14909047-16.23272763 16.23272763-31.56363619 32.46545428-45.54181809 50.50181809-14.88 19.38909047-14.88 45.99272762 0 65.83272763 14.42909047 18.03636381 29.30909047 34.26909047 45.54181809 50.05090856 18.48727237 18.03636381 37.42545428 34.26909047 58.16727238 49.14909144 6.31272762 4.50909047 11.27272762 10.82181809 14.42909047 18.03636381 3.15636381 7.21454572 3.60727237 15.33090953 2.70545525 22.99636381-4.05818191 25.25090953-6.31272762 50.50181809-6.31272763 76.20363619-0.45090953 22.99636381 0.90181809 45.09090953 3.60727238 67.63636381 1.35272762 11.72363619 6.76363619 22.99636381 15.33090953 31.11272666l0.90181809 0.90181809c8.56727237 7.66545428 18.93818191 12.62545428 30.21090953 13.97818191 47.79636381 5.41090953 96.04363619 4.50909047 143.84-3.15636381 7.66545428-1.35272762 15.78181809-0.45090953 22.99636285 2.25454571 7.21454572 3.15636381 13.52727237 8.11636381 18.03636381 14.42909144 4.05818191 5.86181809 8.56727237 11.72363619 13.07636381 17.58545428 10.82181809 13.52727237 22.99636381 27.50545428 36.07272763 40.5818181 15.78181809 16.23272763 32.46545428 31.11272762 50.05090856 45.54181809 4.05818191 3.15636381 8.11636381 5.41090953 12.62545525 7.21454572 6.31272762 2.70545428 13.52727237 4.05818191 20.74181809 4.05818191 12.17454572 0 23.44727238-4.05818191 32.46545429-11.27272763 7.21454572-5.86181809 14.42909047-11.72363619 21.64363618-18.48727237 9.46909047-8.56727237 18.93818191-17.58545428 28.40727238-27.50545525 12.62545428-13.07636381 24.8-26.60363619 35.62181906-40.5818181 4.96-5.86181809 9.01818191-11.72363619 13.52727238-17.58545428 4.50909047-6.31272762 10.82181809-11.27272762 18.03636381-14.42909047 7.21454572-3.15636381 15.33090953-3.60727237 22.99636381-2.25454572 24.8 4.05818191 49.6 5.86181809 74.85090856 6.31272666h1.80363619c22.99636381 0.45090953 45.09090953-0.90181809 67.63636381-3.60727238 24.34909047-2.70545428 43.28727238-22.09454572 45.99272763-45.99272762l3.60727237-63.12727238v-8.56727237c-49.14909047 8.11636381-98.29818191 12.62545428-147.8981819 13.97818191l-21.64363619 17.58545428c-32.01454572 23.89818191-68.98909047 41.03272762-107.31636381 51.40363618l-85.2218181 11.72363619H512c-6.76363619 0-13.52727237 0-20.29090953-0.90181809-82.51636381-4.50909047-160.97454572-39.68-219.59272666-98.74909047-13.52727237-13.07636381-25.70181809-27.50545428-36.07272762-42.38545525-41.93454572-57.26545428-63.12727237-123.54909047-63.12727238-197.49818094v-3.15636381l13.97818191-94.24c10.82181809-37.42545428 28.40727238-73.04727238 52.75636381-104.16l22.99636285-27.50545525c5.41090953-5.86181809 10.82181809-11.27272762 16.23272762-16.23272666l4.96-4.50909143c5.41090953-38.32727237 14.42909047-76.65454572 26.15272763-113.17818191l-7.66545525-0.90181809-30.21090857-1.80363619c-8.56727237-0.45090953-17.13454572-0.45090953-25.70181809-0.45090856l-42.83636381 2.70545428z" fill="#F02452" p-id="2950"></path></svg>