<?xml version="1.0" standalone="no"?><!DOCTYPE svg PUBLIC "-//W3C//DTD SVG 1.1//EN" "http://www.w3.org/Graphics/SVG/1.1/DTD/svg11.dtd"><svg t="1607072742648" class="icon" viewBox="0 0 1024 1024" version="1.1" xmlns="http://www.w3.org/2000/svg" p-id="4436" xmlns:xlink="http://www.w3.org/1999/xlink" width="150" height="150"><defs><style type="text/css"></style></defs><path d="M911.28321117 177.48063831l-380.69880219 54.06373522v462.92073284l-6.75796689 0.56316392c-6.19480299 1.12632781-11.82644209 2.81581955-16.89491727 5.06847518v-1.12632783h-19.7107368v33.78983452c2.25265564 13.51593381 15.76858944 26.4687037 47.86893223 23.08972025 0 0 49.55842395-6.75796691 62.51119385-9.01062254 14.64226162-2.25265564 25.9055398-4.50531127 33.78983451-5.63163908l291.15574073-41.67412924c19.14757289-2.81581955 33.78983451-19.14757289 33.78983452-38.85830969V216.33894801c-0.56316391-23.65288416-21.40022852-42.23729314-45.05311269-38.8583097z" fill="#D32F2F" p-id="4437"></path><path d="M955.77315995 442.16767533v218.50759653c0 19.71073681-14.64226162 36.04249015-33.78983451 38.85830969l-291.15574073 41.67412924c-7.88429472 1.12632781-19.14757289 3.37898344-33.78983452 5.63163908-12.9527699 2.25265564-62.51119385 9.01062253-62.51119384 9.01062254-32.10034278 3.37898344-45.61627659-9.01062253-47.86893224-23.08972025v-33.78983452H506.36836092v1.12632783c4.50531127-2.25265564 10.13695035-3.94214735 16.89491725-5.06847518l6.75796691-0.56316392V506.93152482l425.75191487-64.76384949z" fill="#1565C0" p-id="4438"></path><path d="M911.28321117 177.48063831l-380.69880219 54.06373522v158.81222222l425.75191488-60.82170212V216.33894801c-0.56316391-23.65288416-21.40022852-42.23729314-45.05311269-38.8583097z" fill="#D32F2F" p-id="4439"></path><path d="M530.02124508 694.46510637v61.38486604c1.68949173 0 3.37898344 0 5.06847517-0.56316391 0 0 49.55842395-6.75796691 62.51119385-9.01062254 14.64226162-2.25265564 25.9055398-4.50531127 33.78983451-5.63163908l291.15574073-41.67412924c19.14757289-2.81581955 33.78983451-19.14757289 33.78983452-38.85830969V330.09805753l-425.75191488 60.82170213-0.5631639 303.54534671z" fill="#E2A803" p-id="4440"></path><path d="M955.77315995 330.09805753l-425.75191487 60.82170213V562.68475176l425.75191487-58.00588258v155.99640268-330.57721433z" fill="#E2A803" p-id="4441"></path><path d="M530.02124508 562.68475176v131.78035461l-6.75796691 0.56316392c-6.19480299 1.12632781-11.82644209 2.81581955-16.89491725 5.06847518v-1.12632783h-19.71073681v33.78983452c2.25265564 12.9527699 14.64226162 25.34237589 42.80045706 23.08972025 1.68949173 0 3.37898344 0 5.06847518-0.56316391 0 0 49.55842395-6.75796691 62.51119384-9.01062254 14.64226162-2.25265564 25.9055398-4.50531127 33.78983452-5.63163908l291.15574073-41.67412924c19.14757289-2.81581955 33.78983451-19.14757289 33.78983451-38.85830969V504.67886918L530.02124508 562.68475176z" fill="#1565C0" p-id="4442"></path><path d="M633.64340425 216.90211192l-103.05899527 14.64226161v158.81222222l48.99526005-6.7579669 54.06373522-166.69651693z" fill="#D32F2F" p-id="4443"></path><path d="M955.77315995 330.09805753V216.33894801c0-24.21604807-21.40022852-42.23729314-45.05311269-38.8583097l-277.63980692 39.42147361 105.3116509 143.60679667 217.38126871-30.41085106z" fill="#D32F2F" p-id="4444"></path><path d="M854.4036564 518.19480299l101.36950355-14.07909771v-174.58081165l-216.8181048 30.97401496 115.44860125 157.6858944z" fill="#FFB300" p-id="4445"></path><path d="M530.02124508 390.91975966v144.7331245l48.99526003-151.49109141-48.99526003 6.75796691z" fill="#E2A803" p-id="4446"></path><path d="M494.54191883 746.27618596l-4.50531126-6.19480299c1.12632781 2.25265564 2.25265564 4.50531127 4.50531126 6.19480299z" fill="#1565C0" p-id="4447"></path><path d="M955.77315995 656.7331245v-152.05425532l-101.36950355 14.07909773 101.36950355 137.97515759z" fill="#1976D2" p-id="4448"></path><path d="M633.64340425 216.90211192z" fill="#9E9E9E" p-id="4449"></path><path d="M738.95505515 361.07207251l-105.3116509-143.60679668-54.06373522 166.13335302 159.37538612-22.52655634z" fill="#C62828" p-id="4450"></path><path d="M854.4036564 518.19480299l-115.44860125-157.12273048-159.37538612 22.52655634-48.99526005 151.4910914v27.03186761l323.81924742-43.92678487z" fill="#FFA000" p-id="4451"></path><path d="M530.02124508 756.41313632c1.68949173 0 3.37898344 0 5.06847517-0.56316391 0 0 49.55842395-6.75796691 62.51119385-9.01062254 14.64226162-2.81581955 25.9055398-4.50531127 33.78983451-5.63163908l291.15574073-42.23729315c19.14757289-2.81581955 33.78983451-19.71073681 33.78983452-39.42147359v1.12632781-3.94214736l-101.36950355-137.97515759-323.81924742 44.48994876v131.2171907l-6.7579669 0.56316392c-6.75796691 1.12632781-12.38960599 2.81581955-16.89491726 5.06847518v-1.12632783h-19.7107368v34.35299842c0.56316391 2.81581955 1.12632781 5.06847518 2.25265564 7.32113082l4.50531126 6.19480299c6.19480299 6.19480299 17.45808117 10.70011426 35.47932625 9.57378645z" fill="#1565C0" p-id="4452"></path><path d="M634.20656815 577.8901773V130.73803391v-2.25265564c-2.81581955-18.58440898-17.45808117-28.72135934-45.05311268-26.46870371l-7.88429472 1.12632782h-0.56316391l-92.358881 12.9527699-286.08726555 39.42147359v531.6267297l366.05654056-51.24791568v36.04249015l65.8901773-8.44745863v-85.60091411z" fill="#F44336" p-id="4453"></path><path d="M634.20656815 617.3116509V294.05556738v-2.25265563c-2.81581955-18.58440898-17.45808117-28.72135934-44.48994876-27.03186761l-7.88429472 1.12632781h0.5631639-0.5631639L489.47344365 278.85014185l-285.52410163 39.98463752v298.47687153h430.25722613z" fill="#FFCA28" p-id="4454"></path><path d="M634.20656815 478.77332939c-2.81581955-18.58440898-17.45808117-28.72135934-45.05311268-26.4687037l-7.88429472 1.12632782h-0.56316391l-92.358881 12.9527699L202.25985029 506.36836092v180.77561465l366.05654056-51.24791568v34.91616232l65.8901773-8.44745863V481.02598502v-2.25265563z" fill="#2196F3" p-id="4455"></path><path d="M593.09560283 693.90194247s-49.55842395 6.19480299-62.51119385 7.88429471c-29.84768715 2.81581955-43.36362097 18.58440898-43.36362096 18.58440898l0.56316391-73.21130811 100.80633963-14.07909771c27.0318676-2.25265564 41.67412924 8.44745863 44.48994878 26.46870371 1.68949173 13.51593381-7.88429472 29.28452324-39.98463751 34.35299842z" fill="#0D47A1" p-id="4456"></path><path d="M171.28583532 70.47949569H230.41804572v905.00440105H171.28583532V70.47949569z" fill="#CFD8DC" p-id="4457"></path><path d="M304.75568165 1004.76841998H97.51136329c-16.33175334 0-29.28452324-13.51593381-29.28452324-29.28452324s13.51593381-29.28452324 29.28452324-29.28452324h207.24431836c16.33175334 0 29.28452324 13.51593381 29.28452325 29.28452324s-12.9527699 29.28452324-29.28452325 29.28452324z" fill="#CFD8DC" p-id="4458"></path><path d="M132.42752563 87.93757686c0 38.29514578 30.97401498 68.70599684 68.70599684 68.70599684S269.83951932 125.66955872 269.83951932 87.93757686c0-38.29514578-30.97401498-68.70599684-68.70599685-68.70599684S132.42752563 50.20559497 132.42752563 87.93757686z" fill="#546E7A" p-id="4459"></path></svg>