<?xml version="1.0" standalone="no"?><!DOCTYPE svg PUBLIC "-//W3C//DTD SVG 1.1//EN" "http://www.w3.org/Graphics/SVG/1.1/DTD/svg11.dtd"><svg t="1607072731498" class="icon" viewBox="0 0 1024 1024" version="1.1" xmlns="http://www.w3.org/2000/svg" p-id="4294" xmlns:xlink="http://www.w3.org/1999/xlink" width="150" height="150"><defs><style type="text/css"></style></defs><path d="M619.16514484 480.81050766h29.26399129v-27.86352075h-29.26399129v27.86352075z m0-66.11386275h29.26399129v-27.83434491h-29.26399129v27.83434491zM541.75999128 480.78133181h29.26399128v-27.86352172h-29.26399128v27.86352172z m0-66.11386275h30.95622606v-27.8343449H541.75999128v27.8343449z m-156.67760084 5.22258647h36.17881253v-41.78069369h-36.17881253v41.78069369z m0 83.53221056h36.17881253v-43.53128112h-36.17881253v43.53128112z m0 40.00092944h36.17881253v55.66868981c-11.49552559 1.16705894-23.54540481 2.91764637-36.17881253 5.25176232v-60.92045213z m-72.29927338-170.79900856h25.82116906v233.14910803c-10.32846763 1.16705894-18.93552366 2.33411691-25.82116906 3.50117488 1.13788212 4.639057 3.44282222 12.16658453 6.88564541 22.61175843 2.27576425 12.77929081 4.58070434 22.05740481 6.8856454 27.83434491h1.72141063c1.13788212 0 5.16423381-1.13788212 12.04987922-3.50117584 24.09975747-8.08188019 51.05880866-15.05505409 80.9063294-20.86117004v76.55903666h48.22869175v-85.25362216c3.41364637-1.16705894 9.16140869-2.33411691 17.21411207-3.50117584 6.85646859-2.30494009 12.04987922-3.47199903 15.46352462-3.47199903 0-11.58305506 0.58352947-24.91669853 1.75058841-40.03010528l-34.4282251 6.9731739v-214.00934862h24.07058066v144.42348684h206.59852738V339.56725559h-79.18491782v-6.94399806c0-6.97317487 0.58352947-12.750114 1.7214116-17.41834781a13.42117294 13.42117294 0 0 0 1.69223478-5.19341063c2.33411691-2.33411691-6.88564541-3.50117584-27.51340385-3.50117487h-25.82116906v33.05693137h-70.60703762v-12.16658453h-187.63382788v45.22351591z m220.34064138 263.02580462h106.75667431c-1.16705894 22.05740481-5.16423381 34.22399031-12.04987825 36.52893041-1.16705894 1.16705894-8.63623284 1.16705894-22.37834684 0h-24.12893428c8.02352753 10.44517294 12.63340772 25.52940384 13.77129081 45.22351688 39.00892944 1.16705894 64.85927531-2.33411691 77.49268303-10.4159971 11.43717294-9.27811497 19.48987631-46.39057484 24.09975747-111.36655547h-101.5924405l6.88564444-19.1397594h117.08514193V536.50837428h-235.83334184v40.03010528h63.66303956a550.70572034 550.70572034 0 0 1-13.77128984 59.16986566z m-22.78681641-471.69586146c191.10582594 0 346.03283934 154.63524819 346.03283935 345.36178137 0 190.75570903-154.92701341 345.36178041-346.03283935 345.36178041s-346.03283934-154.63524819-346.03283934-345.36178041 154.92701341-345.36178041 346.03283934-345.36178137z" fill="#528EF6" p-id="4295"></path><path d="M510.33694203 1002.74823672C237.33278669 1002.74823672 16.00014628 781.85324269 16.00014628 509.37426416c0-66.46398063 13.246114-129.83525594 37.14163572-187.72135638l40.08845891 18.03105313a447.39186825 447.39186825 0 0 0-33.29034297 169.69030325c0 248.26251478 201.63852931 449.52175038 450.39704409 449.52175037 248.72933894 0 450.36786728-201.25923462 450.36786728-449.52175037S759.06628 59.85251378 510.33694203 59.85251378c-91.87667916 0-177.27618344 27.51340384-248.49592734 74.63339028L236.8659635 98.36544419A492.61538416 492.61538416 0 0 1 510.33694203 16.00029159c272.97497853 0 494.30761894 220.86581722 494.30761894 493.37397257 0 272.47897853-221.33264041 493.37397256-494.30761894 493.37397256z" fill="#9AC936" p-id="4296"></path><path d="M142.33422637 290.08397544a82.30679897 82.30679897 0 0 1-82.39432843-82.2192695A82.30679897 82.30679897 0 0 1 142.33422637 125.64543644a82.30679897 82.30679897 0 0 1 82.39432844 82.2192695A82.30679897 82.30679897 0 0 1 142.33422637 290.08397544z" fill="#9AC936" p-id="4297"></path></svg>