<?xml version="1.0" standalone="no"?><!DOCTYPE svg PUBLIC "-//W3C//DTD SVG 1.1//EN" "http://www.w3.org/Graphics/SVG/1.1/DTD/svg11.dtd"><svg t="1607495256352" class="icon" viewBox="0 0 1024 1024" version="1.1" xmlns="http://www.w3.org/2000/svg" p-id="3625" xmlns:xlink="http://www.w3.org/1999/xlink" width="150" height="150"><defs><style type="text/css"></style></defs><path d="M453.86695138 122.68456293V90.53539746c0-32.10601985 26.02702878-58.13304862 58.13304862-58.13304863 32.10601985 0 58.13304862 26.02702878 58.13304862 58.13304863v32.14916547c141.72655589 20.02297485 254.2355778 135.37506616 267.23830577 281.73296396l28.07303961 316.01102524C913.21681628 734.87892929 947.99786469 779.24171202 947.99786469 831.73176744H76.00213531c0-52.48892001 34.78104841-96.85283816 82.55347069-111.30435073l28.07303961-316.00988982C199.63137357 258.05962909 312.14039548 142.70753779 453.86695138 122.68456293z" fill="#FF6E78" p-id="3626"></path><path d="M500.36998405 590.85430131l-36.95990233 16.13646264c-14.71265711 6.42302062-31.84601069-0.2963423-38.26903133-15.00899941a29.06652431 29.06652431 0 0 1-2.2901242-14.45832503l3.9251162-40.1367826a29.06652431 29.06652431 0 0 0-7.1871523-22.12121458l-26.76845225-30.16560225c-10.65469783-12.00810785-9.55789069-30.37905955 2.44908178-41.03375738a29.06652431 29.06652431 0 0 1 13.04360277-6.64556119l39.38627586-8.67113462a29.06652431 29.06652431 0 0 0 18.81716825-13.67034972l20.41696251-34.779913c8.1272727-13.84406762 25.93846671-18.47768034 39.78139893-10.35154305a29.06652431 29.06652431 0 0 1 10.35154305 10.35154305l20.41696251 34.7787776a29.06652431 29.06652431 0 0 0 18.81716825 13.67148512l39.38741127 8.67113462c15.67662114 3.45164977 25.58762468 18.95795923 22.13711033 34.63571579a29.06652431 29.06652431 0 0 1-6.64556119 13.04360278l-26.76845225 30.16560225a29.06652431 29.06652431 0 0 0-7.1871523 22.12007919l3.9251162 40.13791799c1.56119028 15.97750507-10.12332542 30.19512295-26.10083052 31.75744864a29.06652431 29.06652431 0 0 1-14.45832501-2.2901242l-36.95990233-16.13532722a29.06652431 29.06652431 0 0 0-23.2600319 0z" fill="#FFFFFF" p-id="3627"></path><path d="M366.66737843 860.79829176c0 64.21203969 65.06813966 116.26609726 145.33262157 116.26609725 80.26448191 0 145.33262157-52.05405757 145.33262157-116.26609725H366.66737843z" fill="#FFA416" p-id="3628"></path></svg>