<?xml version="1.0" standalone="no"?><!DOCTYPE svg PUBLIC "-//W3C//DTD SVG 1.1//EN" "http://www.w3.org/Graphics/SVG/1.1/DTD/svg11.dtd"><svg t="1607063982313" class="icon" viewBox="0 0 1024 1024" version="1.1" xmlns="http://www.w3.org/2000/svg" p-id="56445" xmlns:xlink="http://www.w3.org/1999/xlink" width="150" height="150"><defs><style type="text/css"></style></defs><path d="M966.704762 174.32381c0-64.609524-52.419048-117.028571-117.028572-117.028572h-341.333333v909.409524h458.361905v-792.380952z" fill="#57B1B5" p-id="56446"></path><path d="M182.857143 57.295238C113.371429 57.295238 57.295238 113.371429 57.295238 182.857143v666.819047c0 64.609524 52.419048 117.028571 117.028572 117.028572h334.019047V57.295238H182.857143z" fill="#7BD3D7" p-id="56447"></path><path d="M856.990476 299.885714H508.342857v63.390476h348.647619c8.533333 0 15.847619-7.314286 15.847619-15.847619v-31.695238c0-8.533333-7.314286-15.847619-15.847619-15.847619z" fill="#FFFFFF" p-id="56448"></path><path d="M159.695238 299.885714c-8.533333 0-15.847619 7.314286-15.847619 15.847619v31.695238c0 8.533333 7.314286 15.847619 15.847619 15.847619h348.647619v-63.390476H159.695238z" fill="#4FAEB2" p-id="56449"></path><path d="M508.342857 817.980952h364.495238v12.190477H508.342857z" fill="#FFFFFF" p-id="56450"></path><path d="M535.161905 769.219048s85.333333-106.057143 157.257143-119.466667c-85.333333 34.133333-184.07619 173.104762-184.076191 173.104762h96.304762s-1.219048-4.87619-7.314286-4.876191h-76.8s14.628571-17.066667 26.819048-28.038095c48.761905-2.438095 91.428571-7.314286 121.904762-48.761905 4.87619-9.752381-3.657143-8.533333-6.095238-8.533333 23.161905-9.752381 74.361905-46.32381 65.828571-64.609524-3.657143-3.657143-6.095238-1.219048-6.095238-1.219047s37.790476-24.380952 18.285714-35.352381c-19.504762-10.971429-69.485714 6.095238-69.485714 6.095238s3.657143-8.533333-7.314286-8.533334c-40.228571 3.657143-71.92381 32.914286-71.923809 32.914286s0-9.752381-6.095238-6.095238c-84.114286 53.638095-51.2 113.371429-51.2 113.371429z" fill="#FFFFFF" p-id="56451"></path><path d="M508.342857 448.609524H160.914286c-10.971429 0-20.72381 7.314286-20.72381 17.066666v28.038096c0 9.752381 8.533333 17.066667 20.72381 17.066666h347.428571v-62.171428z" fill="#44A3A9" p-id="56452"></path></svg>