<?xml version="1.0" standalone="no"?><!DOCTYPE svg PUBLIC "-//W3C//DTD SVG 1.1//EN" "http://www.w3.org/Graphics/SVG/1.1/DTD/svg11.dtd"><svg t="1607072759111" class="icon" viewBox="0 0 1024 1024" version="1.1" xmlns="http://www.w3.org/2000/svg" p-id="4741" xmlns:xlink="http://www.w3.org/1999/xlink" width="150" height="150"><defs><style type="text/css"></style></defs><path d="M853.73513702 988.5169615H120.84523066C73.21484565 988.5169615 34.64169268 949.94380854 34.64169268 902.31342351V212.47200832c0-47.63038501 38.57315297-86.20353798 86.20353798-86.20353797h732.88990636c47.63038501 0 86.20353798 38.57315297 86.20353797 86.20353797v689.73485953c0.10655567 47.73694069-38.57315297 86.31009366-86.20353797 86.31009365z" fill="#9DC912" p-id="4742"></path><path d="M940.04523066 230.90613944V264.79084287L666.62337843 537.99958376l-90.5723205 1.06555672-5.22122788-5.43433923c-14.27845993 3.83600416-30.15525495 0.21311134-41.34360043-10.97523413-11.40145682-11.18834548-14.91779396-27.17169615-10.97523412-41.34360042l-5.43433924-5.43433923 1.06555671-90.35920916 241.02892821-241.02892819h98.56399584c47.73694069 0.10655567 86.31009366 38.78626431 86.31009364 86.41664932z" fill="#609528" p-id="4743"></path><path d="M986.71661464 199.68532778L666.62337843 519.77856399l-90.46576483 1.06555672-5.22122789-5.32778356c-14.38501561 3.83600416-30.26181061 0.31966701-41.55671175-10.97523413-11.18834548-11.29490114-14.8112383-27.06514048-10.97523414-41.45015609l-5.22122788-5.32778355 0.95900103-90.46576484L834.34200486 47.20416233c16.83579605-16.83579605 44.11404787-16.83579605 60.94984391 0l91.42476587 91.42476587c16.83579605 16.83579605 16.83579605 44.22060354 0 61.05639958z" fill="#F9BA00" p-id="4744"></path><path d="M379.56240029 514.34422476H164.00027749c-11.93423517 0-21.52424557-9.59001041-21.52424558-21.52424557s9.59001041-21.52424557 21.52424558-21.52424557h215.5621228c11.93423517 0 21.52424557 9.59001041 21.52424557 21.52424557 0 11.8276795-9.59001041 21.52424557-21.52424557 21.52424557z m474.17273673 193.93132154H164.00027749c-11.93423517 0-21.52424557-9.59001041-21.52424558-21.52424557 0-11.8276795 9.59001041-21.52424557 21.52424558-21.52424558h689.73485953c11.93423517 0 21.52424557 9.69656608 21.52424557 21.52424558 0 11.93423517-9.59001041 21.52424557-21.52424557 21.52424557z" fill="#EAFFA5" p-id="4745"></path></svg>