<?xml version="1.0" standalone="no"?><!DOCTYPE svg PUBLIC "-//W3C//DTD SVG 1.1//EN" "http://www.w3.org/Graphics/SVG/1.1/DTD/svg11.dtd"><svg t="1607072763092" class="icon" viewBox="0 0 1024 1024" version="1.1" xmlns="http://www.w3.org/2000/svg" p-id="4884" xmlns:xlink="http://www.w3.org/1999/xlink" width="150" height="150"><defs><style type="text/css"></style></defs><path d="M512 512m-319.7126875 0a319.7126875 319.7126875 0 1 0 639.425375 0 319.7126875 319.7126875 0 1 0-639.425375 0Z" fill="#FFFFFF" p-id="4885"></path><path d="M947.3930625 376.25875c-49.131125-29.8510625-90.213875-101.745875-91.174875-159.8263125-0.961-58.020375-47.9899375-98.022-104.5688125-88.9525625-56.699 9.0694375-133.6390625-19.340125-171.2381875-63.1256875s-99.103125-43.7855625-136.70225 0c-37.599125 43.845625-114.59925 72.2551875-171.2381875 63.18575-56.578875-9.1295-103.7279375 30.872125-104.749 88.8925-0.961 58.0804375-41.923625 129.97525-91.05475 159.8263125S16.9048125 467.433625 53.002375 512.5405625s50.2723125 126.852 31.6529375 181.749125c-18.7395 54.8370625 12.0725625 108.7731875 68.2910625 119.8246875 56.2785625 11.0515 119.043875 64.4470625 139.6453125 118.6234375 20.4813125 54.176375 78.3215 75.4385 128.3535625 47.32925 50.21225-28.1693125 132.1375-28.1693125 182.2896875 0 50.0320625 28.10925 107.87225 6.847125 128.3535625-47.32925 20.541375-54.176375 83.36675-107.5719375 139.6453125-118.6234375 56.2185-11.0515 86.9705-64.987625 68.351125-119.8246875-18.7395-54.897125-4.5046875-136.6421875 31.592875-181.749125 35.917375-45.1069375 25.22625-106.43075-23.78475-136.2818125z m-470.16925 390.5864375L264.8428125 554.4641875l84.928375-84.928375 127.452625 127.452625 212.381-212.381 84.928375 84.928375-297.309375 297.309375z" fill="#FFC000" p-id="4886"></path></svg>