<?xml version="1.0" standalone="no"?><!DOCTYPE svg PUBLIC "-//W3C//DTD SVG 1.1//EN" "http://www.w3.org/Graphics/SVG/1.1/DTD/svg11.dtd"><svg t="1607314185400" class="icon" viewBox="0 0 1024 1024" version="1.1" xmlns="http://www.w3.org/2000/svg" p-id="2637" xmlns:xlink="http://www.w3.org/1999/xlink" width="150" height="150"><defs><style type="text/css"></style></defs><path d="M266.01806136 102.03010226h491.96387728a163.98795909 163.98795909 0 0 1 163.9879591 163.9879591v491.96387728a163.98795909 163.98795909 0 0 1-163.9879591 163.9879591H266.01806136a163.98795909 163.98795909 0 0 1-163.9879591-163.9879591V266.01806136a163.98795909 163.98795909 0 0 1 163.9879591-163.9879591z m569.28419999 316.82473698a87.15960026 87.15960026 0 0 0-77.23832873-59.93759905l-119.0962553-8.60936785-45.50665864-111.59380617A87.15960026 87.15960026 0 0 0 512.08199398 184.02408182c-36.077351 0-67.48104517 21.23644071-81.25603374 54.64898737L385.07331966 350.55385428 266.01806136 359.16322212a86.9956123 86.9956123 0 0 0-77.15633476 59.69161712 87.32358822 87.32358822 0 0 0 26.0740855 95.19501026l92.69419388 77.07434076-28.082938 115.61151117a86.50364843 86.50364843 0 0 0 14.34894643 74.40953643 87.73355811 87.73355811 0 0 0 69.69488263 34.92943529c17.01375076 0 33.6585286-5.12462373 47.63850209-14.59492836l99.41770021-62.23343049 101.79552559 62.93037932c12.8320578 8.69136182 29.43583865 13.89797953 46.49058641 13.89797953 26.11508249 0 51.24623721-12.29909694 67.60403614-33.00257676 16.72677184-20.99045877 22.79432632-48.37644794 16.80876579-75.02449129l-28.32891992-116.80042387 93.67812164-76.86935583c28.08293799-24.27021794 38.12720049-61.16750874 26.64804334-95.52298616z" fill="#FFDF73" p-id="2638"></path><path d="M755.35813129 399.83223601l-140.00472006-10.1262565a7.50244913 7.50244913 0 0 1-6.55951836-4.8376448l-53.29608672-130.6574064A46.12161349 46.12161349 0 0 0 512.08199398 225.02107159c-19.39157617 0-35.91336305 11.19217821-43.37481518 29.31284771L415.24710414 385.11431666a7.83042504 7.83042504 0 0 1-6.55951837 4.7966478l-139.75873814 10.12625646c-18.94060926 1.06592175-35.09342325 13.52900663-41.28396869 31.89565805a46.32659844 46.32659844 0 0 0 13.93897652 51.00025528l108.15005901 89.90639857c2.25483443 1.88586154 3.27975918 4.91963878 2.58281037 7.78942805l-32.96157978 135.82302712c-3.85371704 14.10296448-1.18891271 28.69789284 7.37945815 40.13605298 8.73235882 11.52015412 22.42535343 18.4486454 36.81529681 18.44864541 8.89634679 0 17.54671162-2.66480434 24.68018785-7.50244911l118.23531851-74.04056355a7.66643709 7.66643709 0 0 1 8.07640697 0l119.42423123 73.79458159c7.50244913 5.08362673 16.15281397 7.78942805 24.92616977 7.78942804 13.44701265 0 26.77103433-6.47752437 35.42139917-17.42372064 9.01933774-11.31516918 12.29909694-26.0330885 9.01933774-40.75100782l-33.12556773-136.19200002a7.95341601 7.95341601 0 0 1 2.58281036-7.87142205l109.83093561-90.19337749c14.75891633-12.70906682 20.006531-32.22363399 13.81598556-50.83626733a46.20360746 46.20360746 0 0 0-41.07898377-31.97765199z" fill="#FF9400" p-id="2639"></path></svg>