<?xml version="1.0" standalone="no"?><!DOCTYPE svg PUBLIC "-//W3C//DTD SVG 1.1//EN" "http://www.w3.org/Graphics/SVG/1.1/DTD/svg11.dtd"><svg t="1607313560315" class="icon" viewBox="0 0 1024 1024" version="1.1" xmlns="http://www.w3.org/2000/svg" p-id="3089" xmlns:xlink="http://www.w3.org/1999/xlink" width="150" height="150"><defs><style type="text/css"></style></defs><path d="M774.943558 351.97585892H882.55470815c43.20085098 0 78.19556153 34.7399156 78.19556153 77.58054024v441.23383096c0 50.87983083-41.61058206 92.11261405-92.92092745 92.10382782s-92.87699799-41.24156947-92.88578423-92.10382782z" fill="#08979C" p-id="3090"></path><path d="M61.06201172 138.64255197C61.06201172 95.79314109 96.09186636 61.06201172 139.25757325 61.06201172h572.14550182c43.20963722 0 78.19556153 34.73112936 78.19556152 77.58054025v732.04224586c0 50.95890529 41.64572617 92.25319045 93.01757351 92.25319045H139.25757325c-43.20085098 0-78.19556153-34.73112936-78.19556153-77.58054025z" fill="#36CFC9" p-id="3091"></path><path d="M207.78851468 216.21430596h117.31091434q39.11535282 0 39.11535282 38.79027056V371.4017443q0 38.78148432-39.11535282 38.79027056H207.78851468q-39.11535282 0-39.12413907-38.79027056V255.00457652q-0.0351441-38.78148432 39.12413907-38.79027056zM471.79078788 225.91407016h156.4701975q29.33651417 0 29.33651418 29.09050636 0 29.09929173-29.33651418 29.09050549H471.79078788q-29.33651417 0-29.33651416-29.09050549t29.33651416-29.09050636zM471.79078788 351.97585892h156.4701975Q657.63264366 351.97585892 657.63264366 381.0663644t-29.33651418 29.09050636H471.79078788q-29.33651417 0-29.33651416-29.09050636t29.33651416-29.09050548zM197.97453281 604.10822094h430.28645257Q657.63264366 604.10822094 657.63264366 633.22508515q0 29.09929173-29.33651418 29.0992926H197.97453281q-29.33651417 0-29.3453013-29.09929261 0-29.10807797 29.3453013-29.1168642zM197.97453281 478.04643305h430.28645257q29.33651417 0 29.33651418 29.09050549 0 29.09929173-29.33651418 29.09050635H197.97453281q-29.33651417 0-29.3453013-29.09050635 0-29.08172012 29.3453013-29.09050549z" fill="#B5F5EC" p-id="3092"></path></svg>