<?xml version="1.0" standalone="no"?><!DOCTYPE svg PUBLIC "-//W3C//DTD SVG 1.1//EN" "http://www.w3.org/Graphics/SVG/1.1/DTD/svg11.dtd"><svg t="1607313537472" class="icon" viewBox="0 0 1024 1024" version="1.1" xmlns="http://www.w3.org/2000/svg" p-id="2637" xmlns:xlink="http://www.w3.org/1999/xlink" width="150" height="150"><defs><style type="text/css"></style></defs><path d="M346.84605983 70.09214815m-48.56174174 0a48.56174174 48.56174174 0 1 0 97.12348512 0 48.56174174 48.56174174 0 1 0-97.12348512 0Z" fill="#FF0000" p-id="2638"></path><path d="M1001.32590586 833.28407521m-48.56174337 0a48.56174174 48.56174174 0 1 0 97.12348511 0 48.56174174 48.56174174 0 1 0-97.12348511 0Z" fill="#1DD899" p-id="2639"></path><path d="M-9.08943763 758.2341104c12.69227411 26.48822307 49.11358081 29.2474135 65.11688279 4.96654184 16.55513941-24.2808717 0.55183744-56.83931144-28.14373699-59.04666446-28.69557446-2.20735139-49.66541826 27.59189957-36.9731458 54.08012262z" fill="#F48211" p-id="2640"></path><path d="M976.49319671 241.16192319c8.82940717 17.65881593 33.11027884 19.86616729 44.69887643 3.31102785 11.03676017-16.55513941 0.55183744-38.62865812-19.31432986-40.28417364-20.41800474-1.65551396-34.21395533 19.31432986-25.38454657 36.97314579z" fill="#FFC200" p-id="2641"></path><path d="M347.39789889 557.91692347c-93.81245724 0-169.41425949-76.15364132-169.41426112-169.41425947 0-93.81245724 76.15364132-169.41425949 169.41426112-169.41426113 93.81245724 0 169.41425949 76.15364132 169.41425952 169.41426113S441.21035451 557.91692347 347.39789889 557.91692347z" fill="#8CBF46" p-id="2642"></path><path d="M750.23962415 557.91692347c-93.81245724 0-169.41425949-76.15364132-169.41425949-169.41425947 0-93.81245724 76.15364132-169.41425949 169.41425949-169.41426113 93.81245724 0 169.41425949 76.15364132 169.4142595 169.41426113S844.05208139 557.91692347 750.23962415 557.91692347zM347.39789889 953.03291806c-93.81245724 0-169.41425949-76.15364132-169.41426112-169.41426109 0-93.81245724 76.15364132-169.41425949 169.41426112-169.41425949 93.81245724 0 169.41425949 76.15364132 169.41425952 169.41425949 0 93.81245724-75.60180386 169.41425949-169.41425952 169.41426109z" fill="#FEA500" p-id="2643"></path><path d="M750.23962415 953.03291806c-93.81245724 0-169.41425949-76.15364132-169.41425949-169.41426109 0-93.81245724 76.15364132-169.41425949 169.41425949-169.41425949 93.81245724 0 169.41425949 76.15364132 169.4142595 169.41425949 0 93.81245724-75.60180386 169.41425949-169.4142595 169.41426109z" fill="#8CBF46" p-id="2644"></path><path d="M147.08071197 255.50970959h-1.10367649c-5.51837927-0.55183744-9.38124622-5.51837927-9.38124622-11.03675855 0.55183744-6.62205578 2.20735139-13.24411153 4.41470437-19.31432985 1.65551396-4.96654182 7.72573225-7.72573225 12.69227409-6.07021832 4.96654182 1.65551396 7.72573225 7.72573225 6.07021671 12.69227411-1.65551396 4.41470439-2.75919044 9.38124622-3.31102789 13.79594896 0 6.07021833-4.41470439 9.93308365-9.38124457 9.93308365z" p-id="2645"></path><path d="M422.4478637 536.39524223h-212.45762197c-40.28417204 0-73.39445087-33.11027884-73.39445247-73.39445088V279.23874383c0-5.51837927 4.41470439-9.93308365 9.93308365-9.93308366s9.93308365 4.41470439 9.93308363 9.93308366v184.31388496c0 29.2474135 23.72903264 53.52828359 53.52828519 53.52828358h212.45762197c29.2474135 0 53.52828359-23.72903264 53.52828358-53.52828358V251.09500682c0-29.2474135-23.72903264-53.52828359-53.52828358-53.52828519h-212.45762197c-12.69227411 0-24.83270912 4.41470439-34.21395532 12.69227411-4.41470439 3.31102787-10.4849211 3.31102787-14.34778803-1.1036765-3.31102787-4.41470439-3.31102787-10.4849211 1.10367651-14.34778643 13.24411153-11.03676017 29.79925094-17.10697686 47.45806684-17.10697847h212.45762197c40.28417204 0 73.39445087 33.11027884 73.39445089 73.39445248v212.45762197c0 40.28417204-33.11027884 72.84261342-73.39445089 72.84261344zM888.7509578 450.8603547c-5.51837927 0-9.93308365-4.41470439-9.93308364-9.93308364v-14.34778644c0-5.51837927 4.41470439-9.93308365 9.93308364-9.93308364s9.93308365 4.41470439 9.93308366 9.93308364v14.34778644c0 5.51837927-4.41470439 9.93308365-9.93308366 9.93308364z" p-id="2646"></path><path d="M825.28958897 536.39524223h-212.45762198c-40.28417204 0-73.39445087-33.11027884-73.39445085-73.39445088V251.09500682c0-40.28417204 33.11027884-73.39445087 73.39445085-73.39445248h212.45762198c40.28417204 0 73.39445087 33.11027884 73.39445249 73.39445248v147.34074082c0 5.51837927-4.41470439 9.93308365-9.93308366 9.93308363s-9.93308365-4.41470439-9.93308364-9.93308363V251.09500682c0-29.2474135-23.72903264-53.52828359-53.52828519-53.52828519h-212.45762198c-29.2474135 0-53.52828359 23.72903264-53.52828357 53.52828519v212.45762197c0 29.2474135 23.72903264 53.52828359 53.52828357 53.52828358h212.45762198c29.2474135 0 53.52828359-23.72903264 53.52828519-53.52828358 0-5.51837927 4.41470439-9.93308365 9.93308364-9.93308365s9.93308365 4.41470439 9.93308366 9.93308365c0 40.28417204-33.11027884 72.84261342-73.39445249 72.84261344zM422.4478637 932.06307428h-212.45762197c-40.28417204 0-73.39445087-33.11027884-73.39445247-73.39445089v-212.4576236c0-40.28417204 33.11027884-73.39445087 73.39445247-73.39445087 5.51837927 0 9.93308365 4.41470439 9.93308367 9.93308366s-4.41470439 9.93308365-9.93308367 9.93308366c-29.2474135 0-53.52828359 23.72903264-53.52828519 53.52828355V858.66862339c0 29.2474135 23.72903264 53.52828359 53.52828519 53.52828359h212.45762197c29.2474135 0 53.52828359-23.72903264 53.52828358-53.52828359v-212.4576236c0-29.2474135-23.72903264-53.52828359-53.52828358-53.52828355h-134.09662927c-5.51837927 0-9.93308365-4.41470439-9.93308364-9.93308366s4.41470439-9.93308365 9.93308364-9.93308366h134.09662927c40.28417204 0 73.39445087 33.11027884 73.39445089 73.39445087V858.66862339c0 40.28417204-33.11027884 73.39445087-73.39445089 73.39445089z" p-id="2647"></path><path d="M254.13727911 592.68271624h-8.82940715c-5.51837927 0-9.93308365-4.41470439-9.93308365-9.93308366s4.41470439-9.93308365 9.93308365-9.93308366h8.82940715c5.51837927 0 9.93308365 4.41470439 9.93308366 9.93308366s-4.41470439 9.93308365-9.93308366 9.93308366zM667.46392707 932.06307428h-20.9698438c-5.51837927 0-9.93308365-4.41470439-9.93308365-9.93308365s4.41470439-9.93308365 9.93308365-9.93308365h20.9698438c5.51837927 0 9.93308365 4.41470439 9.93308364 9.93308365s-4.41470439 9.93308365-9.93308364 9.93308365z" p-id="2648"></path><path d="M825.28958897 932.06307428h-130.7856014c-5.51837927 0-9.93308365-4.41470439-9.93308363-9.93308365s4.41470439-9.93308365 9.93308363-9.93308365h130.7856014c29.2474135 0 53.52828359-23.72903264 53.52828519-53.52828359v-212.4576236c0-29.2474135-23.72903264-53.52828359-53.52828519-53.52828355h-212.45762198c-29.2474135 0-53.52828359 23.72903264-53.52828357 53.52828355V858.66862339c0 29.2474135 23.72903264 53.52828359 53.52828357 53.52828359 5.51837927 0 9.93308365 4.41470439 9.93308365 9.93308365s-4.41470439 9.93308365-9.93308365 9.93308365c-40.28417204 0-73.39445087-33.11027884-73.39445085-73.39445089v-212.4576236c0-40.28417204 33.11027884-73.39445087 73.39445085-73.39445087h212.45762198c40.28417204 0 73.39445087 33.11027884 73.39445249 73.39445087V858.66862339c0 40.28417204-33.11027884 73.39445087-73.39445249 73.39445089z" p-id="2649"></path></svg>