<?xml version="1.0" standalone="no"?><!DOCTYPE svg PUBLIC "-//W3C//DTD SVG 1.1//EN" "http://www.w3.org/Graphics/SVG/1.1/DTD/svg11.dtd"><svg t="1607063994596" class="icon" viewBox="0 0 1024 1024" version="1.1" xmlns="http://www.w3.org/2000/svg" p-id="56591" xmlns:xlink="http://www.w3.org/1999/xlink" width="150" height="150"><defs><style type="text/css"></style></defs><path d="M900.608 895.488H125.952c-22.016 0-59.392-36.864-59.392-57.856V243.2c0-20.992 17.408-37.888 39.424-37.888h814.592c22.016 0 39.424 16.896 39.424 37.888v594.944c0 20.48-37.376 57.344-59.392 57.344z" fill="#FFA000" p-id="56592"></path><path d="M559.616 367.104H66.56V175.616c0-20.992 17.408-37.888 39.424-37.888h351.744c17.408 0 32.768 10.752 37.888 26.624l64 202.752z" fill="#FFA000" p-id="56593"></path><path d="M859.136 848.896h-691.2c-22.016 0-39.424-16.896-39.424-37.888V300.544c0-20.992 17.408-37.888 39.424-37.888h691.2c22.016 0 39.424 16.896 39.424 37.888v510.464c0 20.992-17.92 37.888-39.424 37.888z" fill="#FFFFFF" p-id="56594"></path><path d="M900.608 895.488H125.952c-22.016 0-59.392-20.48-59.392-57.856V371.2c0-20.992 17.408-37.888 39.424-37.888h814.592c22.016 0 39.424 16.896 39.424 37.888v466.944c0 46.08-37.376 57.344-59.392 57.344z" fill="#FFCA28" p-id="56595"></path><path d="M719.872 895.488L404.992 466.944l-253.952 10.752 96.768 123.904-96.768 4.096 226.816 289.792h342.016z" fill="#FFB806" p-id="56596"></path><path d="M385.024 488.96H168.96c-10.752 0-19.456-8.704-19.456-18.944s8.704-18.944 19.456-18.944h216.064c10.752 0 19.456 8.704 19.456 18.944 0.512 10.752-8.704 18.944-19.456 18.944z m0 128H168.96c-10.752 0-19.456-8.704-19.456-18.944s8.704-18.944 19.456-18.944h216.064c10.752 0 19.456 8.704 19.456 18.944 0.512 10.752-8.704 18.944-19.456 18.944z" fill="#FFF8E1" p-id="56597"></path><path d="M792.064 801.792c-5.12 0-9.728-1.024-15.36-4.096l-82.944-43.52c-2.048-1.024-5.12-2.048-8.192-2.048-3.072 0-6.144 1.024-8.192 1.536l-82.432 44.032c-5.12 3.072-9.728 4.096-15.36 4.096-9.728 0-19.456-4.608-25.6-11.776-6.656-7.168-9.216-17.408-7.168-27.136l15.872-91.648c1.024-5.632-1.024-11.264-5.12-15.36l-66.56-64.512c-9.216-9.216-12.8-22.016-8.704-34.304 4.096-12.288 14.336-20.992 27.136-23.04l91.648-13.312c5.632-1.024 11.264-4.608 13.312-9.216l40.96-83.456c5.632-11.264 17.408-18.432 29.696-18.432 12.8 0 24.064 7.168 29.696 18.432l40.96 83.456c3.072 5.12 7.68 8.704 13.312 9.216l91.648 13.312c12.8 2.048 23.04 10.752 27.136 22.528 4.096 12.288 1.024 25.6-8.192 34.304L815.104 655.36c-4.608 4.096-6.144 9.728-5.12 15.36l15.36 91.648c1.536 9.728-1.024 19.456-7.168 27.136-6.656 7.68-15.872 12.288-26.112 12.288z" fill="#FFFFFF" p-id="56598"></path></svg>