<?xml version="1.0" standalone="no"?><!DOCTYPE svg PUBLIC "-//W3C//DTD SVG 1.1//EN" "http://www.w3.org/Graphics/SVG/1.1/DTD/svg11.dtd"><svg t="1607072747871" class="icon" viewBox="0 0 1024 1024" version="1.1" xmlns="http://www.w3.org/2000/svg" p-id="4598" xmlns:xlink="http://www.w3.org/1999/xlink" width="150" height="150"><defs><style type="text/css"></style></defs><path d="M431.79494 32.0766h160.04494c106.4788-2.36406 221.85646 30.29072 294.6426 105.4217 75.2463 72.80536 107.80498 188.18302 105.55624 294.66182v160.04494c2.24874 106.4788-30.30994 221.85646-105.53702 294.6426-72.80536 75.2463-188.18302 107.78576-294.66182 105.53702h-160.04494c-106.4788 2.24874-221.85646-30.29072-294.6426-105.5178C61.90604 814.1384 29.36658 698.74152 31.61532 592.28194V432.237c-2.24874-106.5749 30.29072-221.95256 105.5178-294.75792C209.9577 62.3481 325.35458 29.71254 431.81416 32.0766z" fill="#FF5A47" p-id="4599"></path><path d="M137.15234 137.4983C66.13444 206.26746 33.11448 312.91924 31.61532 414.24708c129.4467 0 234.42634-105.07574 234.42634-234.52244 0-40.1698-10.12894-77.95632-27.869-110.97628-38.07482 16.77906-72.78614 39.5932-101.02032 68.74994z" fill="#FFFFFF" p-id="4600"></path><path d="M493.43348 797.07104c-123.83446-9.37936-209.57488-124.19964-205.82698-257.22126 1.69136-62.2728 39.2088-124.10354 91.0067-151.31906 7.4958 55.9302 15.8565 91.56408 44.28288 104.78744-2.92144-24.10188-11.07072-103.55736-5.82366-128.42804 20.83448-98.4064 54.50792-105.71 81.80032-127.65924 25.79324-16.2409 59.94718-9.20638 65.09814-7.8802-11.532 13.87684-14.7994 24.025-23.90968 69.59562-16.337 81.24294 6.65012 100.75124 34.32692 151.97254-1.86434-15.6643 3.7479-61.63854 18.20134-86.95128 33.01996-57.98674 44.47508-54.9692 58.7171-57.50624 1.51838 1.96044 3.09442 3.7479 4.6128 5.80444 1.01866 1.49916 1.96044 3.09442 2.99832 4.6128 8.72588 140.13302 40.41966 134.59766 61.61932 188.6443 3.28662 8.34148 5.63146 21.00746 8.4568 24.29408 3.19052 21.58406 5.70834 32.55868 6.74622 45.49374 10.12894 132.36814-118.5874 231.23582-242.30654 221.76036z m84.14516-190.52786c-5.05486 44.47508-20.25788 84.06828-27.4846 46.26254-7.1114-37.53666-12.1086-58.54412-32.27038-94.8507-15.10692-10.87852-26.63892-18.95092-26.73502-20.91136-1.69136-4.0362-0.84568 46.8968-23.4484 77.76412-18.75872 35.3648-60.88896 50.66392-58.54412 79.83988 4.6128 61.25414 46.07034 101.02032 102.6348 101.6738 56.08396 0.3844 105.24872-45.20544 102.99998-101.866-4.4206-33.50046-6.09274-57.69844-37.15226-87.91228z" fill="#FFFFFF" p-id="4601"></path><path d="M735.54782 575.2338c-1.01866-12.95428-3.5557-23.9289-6.74622-45.51296-2.72924-3.2674-5.15096-15.9526-8.4568-24.29408a163.81206 163.81206 0 0 0-5.61224-12.66598 261.98782 261.98782 0 0 0-75.5346 184.3198c0 25.81246 3.76712 50.68314 10.60944 74.13154 54.777-40.05448 91.4872-102.9231 85.74042-175.99754z" fill="#FFAEAA" p-id="4602"></path></svg>