<?xml version="1.0" standalone="no"?><!DOCTYPE svg PUBLIC "-//W3C//DTD SVG 1.1//EN" "http://www.w3.org/Graphics/SVG/1.1/DTD/svg11.dtd"><svg t="1607072767085" class="icon" viewBox="0 0 1024 1024" version="1.1" xmlns="http://www.w3.org/2000/svg" p-id="5025" xmlns:xlink="http://www.w3.org/1999/xlink" width="150" height="150"><defs><style type="text/css"></style></defs><path d="M513 512m-458 0a458 458 0 1 0 916 0 458 458 0 1 0-916 0Z" fill="#e5e5e5" p-id="5026"></path><path d="M485.99999999 551.83l0 245a12 12 0 0 1-11.99999999 11.99999999l-157 1e-8a100 100 0 0 1-100-100 169 169 0 0 1 169-169l88 1e-8a12 12 0 0 1 11.99999999 11.99999999z" fill="#F13C4E" p-id="5027"></path><path d="M552 539.83L797 539.83a12 12 0 0 1 12 12l0 157a100 100 0 0 1-100.00000001 100 169 169 0 0 1-168.99999999-169l0-88a12 12 0 0 1 12-12z" fill="#678DCD" p-id="5028"></path><path d="M540 473.82l0-245a12 12 0 0 1 12-12L708.99999999 216.82a100 100 0 0 1 100.00000001 100 169 169 0 0 1-169 169l-88 0a12 12 0 0 1-12-12z" fill="#EB9700" p-id="5029"></path><path d="M474 485.83l-245 0a12 12 0 0 1-12-12l0-156.99999999a100 100 0 0 1 100-100.00000001 169 169 0 0 1 169 169l0 88a12 12 0 0 1-12 12z" fill="#32C9B4" p-id="5030"></path><path d="M512.83 511m-89 0a89 89 0 1 0 178 0 89 89 0 1 0-178 0Z" fill="#FFFFFF" p-id="5031"></path><path d="M511.17 513m60 0a60 60 0 1 0-120 0 60 60 0 1 0 120 0Z" fill="#F5893D" p-id="5032"></path></svg>